<?xml version="1.0" encoding="UTF-8" standalone="no"?><svg xmlns="http://www.w3.org/2000/svg" xmlns:xlink="http://www.w3.org/1999/xlink" clip-rule="evenodd" stroke-miterlimit="4.00" viewBox="0 0 725 209"><desc>SVG generated by Keynote</desc><defs></defs><g transform="matrix(1.00, 0.00, -0.00, -1.00, 0.0, 209.0)"><text xml:space="preserve" font-family="Helvetica-Light" font-size="45.0" fill="#FEFFFF" transform="matrix(1.00, 0.00, -0.00, -1.00, 1.0, 174.0)">&lt;</text><text xml:space="preserve" font-family="Helvetica-Light" font-size="45.0" fill="#FEFFFF" transform="matrix(1.00, 0.00, -0.00, -1.00, 30.7, 174.0)">d</text><text xml:space="preserve" font-family="Helvetica-Light" font-size="45.0" fill="#FEFFFF" transform="matrix(1.00, 0.00, -0.00, -1.00, 58.2, 174.0)">i</text><text xml:space="preserve" font-family="Helvetica-Light" font-size="45.0" fill="#FEFFFF" transform="matrix(1.00, 0.00, -0.00, -1.00, 68.2, 174.0)">v</text><text xml:space="preserve" font-family="Helvetica-Light" font-size="45.0" fill="#FEFFFF" transform="matrix(1.00, 0.00, -0.00, -1.00, 90.7, 174.0)">&gt;</text><text xml:space="preserve" font-family="Helvetica-Light" font-size="45.0" fill="#FEFFFF" transform="matrix(1.00, 0.00, -0.00, -1.00, 120.4, 174.0)"> </text><text xml:space="preserve" font-family="Helvetica-Light" font-size="45.0" fill="#FEFFFF" transform="matrix(1.00, 0.00, -0.00, -1.00, 132.9, 174.0)">&lt;</text><text xml:space="preserve" font-family="Helvetica-Light" font-size="45.0" fill="#FEFFFF" transform="matrix(1.00, 0.00, -0.00, -1.00, 162.6, 174.0)">/</text><text xml:space="preserve" font-family="Helvetica-Light" font-size="45.0" fill="#FEFFFF" transform="matrix(1.00, 0.00, -0.00, -1.00, 175.1, 174.0)">d</text><text xml:space="preserve" font-family="Helvetica-Light" font-size="45.0" fill="#FEFFFF" transform="matrix(1.00, 0.00, -0.00, -1.00, 202.6, 174.0)">i</text><text xml:space="preserve" font-family="Helvetica-Light" font-size="45.0" fill="#FEFFFF" transform="matrix(1.00, 0.00, -0.00, -1.00, 212.6, 174.0)">v</text><text xml:space="preserve" font-family="Helvetica-Light" font-size="45.0" fill="#FEFFFF" transform="matrix(1.00, 0.00, -0.00, -1.00, 235.1, 174.0)">&gt;</text><text xml:space="preserve" font-family="Helvetica-Light" font-size="45.0" fill="#FEFFFF" transform="matrix(1.00, 0.00, -0.00, -1.00, 264.8, 174.0)"> </text><text xml:space="preserve" font-family="Helvetica-Light" font-size="45.0" fill="#FEFFFF" transform="matrix(1.00, 0.00, -0.00, -1.00, 277.3, 174.0)">o</text><text xml:space="preserve" font-family="Helvetica-Light" font-size="45.0" fill="#FEFFFF" transform="matrix(1.00, 0.00, -0.00, -1.00, 302.3, 174.0)">r</text><text xml:space="preserve" font-family="Helvetica-Light" font-size="45.0" fill="#FEFFFF" transform="matrix(1.00, 0.00, -0.00, -1.00, 317.3, 174.0)"> </text><text xml:space="preserve" font-family="Helvetica-Light" font-size="45.0" fill="#FEFFFF" transform="matrix(1.00, 0.00, -0.00, -1.00, 329.8, 174.0)">D</text><text xml:space="preserve" font-family="Helvetica-Light" font-size="45.0" fill="#FEFFFF" transform="matrix(1.00, 0.00, -0.00, -1.00, 362.3, 174.0)">i</text><text xml:space="preserve" font-family="Helvetica-Light" font-size="45.0" fill="#FEFFFF" transform="matrix(1.00, 0.00, -0.00, -1.00, 372.3, 174.0)">v</text><text xml:space="preserve" font-family="Helvetica-Light" font-size="45.0" fill="#FEFFFF" transform="matrix(1.00, 0.00, -0.00, -1.00, 394.8, 174.0)"> </text><text xml:space="preserve" font-family="Helvetica-Light" font-size="45.0" fill="#FEFFFF" transform="matrix(1.00, 0.00, -0.00, -1.00, 407.3, 174.0)">t</text><text xml:space="preserve" font-family="Helvetica-Light" font-size="45.0" fill="#FEFFFF" transform="matrix(1.00, 0.00, -0.00, -1.00, 419.8, 174.0)">a</text><text xml:space="preserve" font-family="Helvetica-Light" font-size="45.0" fill="#FEFFFF" transform="matrix(1.00, 0.00, -0.00, -1.00, 444.8, 174.0)">g</text><text xml:space="preserve" font-family="Helvetica-Light" font-size="45.0" fill="#FEFFFF" transform="matrix(1.00, 0.00, -0.00, -1.00, 472.3, 174.0)">s</text><text xml:space="preserve" font-family="Helvetica-Light" font-size="45.0" fill="#FEFFFF" transform="matrix(1.00, 0.00, -0.00, -1.00, 494.8, 174.0)"> </text><text xml:space="preserve" font-family="Helvetica-Light" font-size="45.0" fill="#FEFFFF" transform="matrix(1.00, 0.00, -0.00, -1.00, 1.0, 120.0)">c</text><text xml:space="preserve" font-family="Helvetica-Light" font-size="45.0" fill="#FEFFFF" transform="matrix(1.00, 0.00, -0.00, -1.00, 26.0, 120.0)">r</text><text xml:space="preserve" font-family="Helvetica-Light" font-size="45.0" fill="#FEFFFF" transform="matrix(1.00, 0.00, -0.00, -1.00, 40.2, 120.0)">e</text><text xml:space="preserve" font-family="Helvetica-Light" font-size="45.0" fill="#FEFFFF" transform="matrix(1.00, 0.00, -0.00, -1.00, 65.2, 120.0)">a</text><text xml:space="preserve" font-family="Helvetica-Light" font-size="45.0" fill="#FEFFFF" transform="matrix(1.00, 0.00, -0.00, -1.00, 90.2, 120.0)">t</text><text xml:space="preserve" font-family="Helvetica-Light" font-size="45.0" fill="#FEFFFF" transform="matrix(1.00, 0.00, -0.00, -1.00, 102.7, 120.0)">e</text><text xml:space="preserve" font-family="Helvetica-Light" font-size="45.0" fill="#FEFFFF" transform="matrix(1.00, 0.00, -0.00, -1.00, 127.8, 120.0)"> </text><text xml:space="preserve" font-family="Helvetica-Light" font-size="45.0" fill="#FEFFFF" transform="matrix(1.00, 0.00, -0.00, -1.00, 140.3, 120.0)">g</text><text xml:space="preserve" font-family="Helvetica-Light" font-size="45.0" fill="#FEFFFF" transform="matrix(1.00, 0.00, -0.00, -1.00, 167.8, 120.0)">e</text><text xml:space="preserve" font-family="Helvetica-Light" font-size="45.0" fill="#FEFFFF" transform="matrix(1.00, 0.00, -0.00, -1.00, 192.8, 120.0)">n</text><text xml:space="preserve" font-family="Helvetica-Light" font-size="45.0" fill="#FEFFFF" transform="matrix(1.00, 0.00, -0.00, -1.00, 217.8, 120.0)">e</text><text xml:space="preserve" font-family="Helvetica-Light" font-size="45.0" fill="#FEFFFF" transform="matrix(1.00, 0.00, -0.00, -1.00, 242.8, 120.0)">r</text><text xml:space="preserve" font-family="Helvetica-Light" font-size="45.0" fill="#FEFFFF" transform="matrix(1.00, 0.00, -0.00, -1.00, 257.8, 120.0)">i</text><text xml:space="preserve" font-family="Helvetica-Light" font-size="45.0" fill="#FEFFFF" transform="matrix(1.00, 0.00, -0.00, -1.00, 267.8, 120.0)">c</text><text xml:space="preserve" font-family="Helvetica-Light" font-size="45.0" fill="#FEFFFF" transform="matrix(1.00, 0.00, -0.00, -1.00, 292.8, 120.0)"> </text><text xml:space="preserve" font-family="Helvetica-Light" font-size="45.0" fill="#FEFFFF" transform="matrix(1.00, 0.00, -0.00, -1.00, 305.3, 120.0)">g</text><text xml:space="preserve" font-family="Helvetica-Light" font-size="45.0" fill="#FEFFFF" transform="matrix(1.00, 0.00, -0.00, -1.00, 332.8, 120.0)">r</text><text xml:space="preserve" font-family="Helvetica-Light" font-size="45.0" fill="#FEFFFF" transform="matrix(1.00, 0.00, -0.00, -1.00, 347.0, 120.0)">o</text><text xml:space="preserve" font-family="Helvetica-Light" font-size="45.0" fill="#FEFFFF" transform="matrix(1.00, 0.00, -0.00, -1.00, 372.0, 120.0)">u</text><text xml:space="preserve" font-family="Helvetica-Light" font-size="45.0" fill="#FEFFFF" transform="matrix(1.00, 0.00, -0.00, -1.00, 397.0, 120.0)">p</text><text xml:space="preserve" font-family="Helvetica-Light" font-size="45.0" fill="#FEFFFF" transform="matrix(1.00, 0.00, -0.00, -1.00, 424.5, 120.0)">s</text><text xml:space="preserve" font-family="Helvetica-Light" font-size="45.0" fill="#FEFFFF" transform="matrix(1.00, 0.00, -0.00, -1.00, 447.0, 120.0)"> </text><text xml:space="preserve" font-family="Helvetica-Light" font-size="45.0" fill="#FEFFFF" transform="matrix(1.00, 0.00, -0.00, -1.00, 459.5, 120.0)">o</text><text xml:space="preserve" font-family="Helvetica-Light" font-size="45.0" fill="#FEFFFF" transform="matrix(1.00, 0.00, -0.00, -1.00, 484.6, 120.0)">r</text><text xml:space="preserve" font-family="Helvetica-Light" font-size="45.0" fill="#FEFFFF" transform="matrix(1.00, 0.00, -0.00, -1.00, 499.6, 120.0)"> </text><text xml:space="preserve" font-family="Helvetica-Light" font-size="45.0" fill="#FEFFFF" transform="matrix(1.00, 0.00, -0.00, -1.00, 512.1, 120.0)">c</text><text xml:space="preserve" font-family="Helvetica-Light" font-size="45.0" fill="#FEFFFF" transform="matrix(1.00, 0.00, -0.00, -1.00, 537.1, 120.0)">o</text><text xml:space="preserve" font-family="Helvetica-Light" font-size="45.0" fill="#FEFFFF" transform="matrix(1.00, 0.00, -0.00, -1.00, 562.1, 120.0)">n</text><text xml:space="preserve" font-family="Helvetica-Light" font-size="45.0" fill="#FEFFFF" transform="matrix(1.00, 0.00, -0.00, -1.00, 587.1, 120.0)">t</text><text xml:space="preserve" font-family="Helvetica-Light" font-size="45.0" fill="#FEFFFF" transform="matrix(1.00, 0.00, -0.00, -1.00, 599.6, 120.0)">a</text><text xml:space="preserve" font-family="Helvetica-Light" font-size="45.0" fill="#FEFFFF" transform="matrix(1.00, 0.00, -0.00, -1.00, 624.7, 120.0)">i</text><text xml:space="preserve" font-family="Helvetica-Light" font-size="45.0" fill="#FEFFFF" transform="matrix(1.00, 0.00, -0.00, -1.00, 634.6, 120.0)">n</text><text xml:space="preserve" font-family="Helvetica-Light" font-size="45.0" fill="#FEFFFF" transform="matrix(1.00, 0.00, -0.00, -1.00, 659.7, 120.0)">e</text><text xml:space="preserve" font-family="Helvetica-Light" font-size="45.0" fill="#FEFFFF" transform="matrix(1.00, 0.00, -0.00, -1.00, 684.7, 120.0)">r</text><text xml:space="preserve" font-family="Helvetica-Light" font-size="45.0" fill="#FEFFFF" transform="matrix(1.00, 0.00, -0.00, -1.00, 699.7, 120.0)">s</text><text xml:space="preserve" font-family="Helvetica-Light" font-size="45.0" fill="#FEFFFF" transform="matrix(1.00, 0.00, -0.00, -1.00, 722.2, 120.0)"> </text><text xml:space="preserve" font-family="Helvetica-Light" font-size="45.0" fill="#FEFFFF" transform="matrix(1.00, 0.00, -0.00, -1.00, 1.0, 66.0)">w</text><text xml:space="preserve" font-family="Helvetica-Light" font-size="45.0" fill="#FEFFFF" transform="matrix(1.00, 0.00, -0.00, -1.00, 33.5, 66.0)">h</text><text xml:space="preserve" font-family="Helvetica-Light" font-size="45.0" fill="#FEFFFF" transform="matrix(1.00, 0.00, -0.00, -1.00, 58.5, 66.0)">i</text><text xml:space="preserve" font-family="Helvetica-Light" font-size="45.0" fill="#FEFFFF" transform="matrix(1.00, 0.00, -0.00, -1.00, 68.5, 66.0)">c</text><text xml:space="preserve" font-family="Helvetica-Light" font-size="45.0" fill="#FEFFFF" transform="matrix(1.00, 0.00, -0.00, -1.00, 93.5, 66.0)">h</text><text xml:space="preserve" font-family="Helvetica-Light" font-size="45.0" fill="#FEFFFF" transform="matrix(1.00, 0.00, -0.00, -1.00, 118.5, 66.0)"> </text><text xml:space="preserve" font-family="Helvetica-Light" font-size="45.0" fill="#FEFFFF" transform="matrix(1.00, 0.00, -0.00, -1.00, 131.0, 66.0)">h</text><text xml:space="preserve" font-family="Helvetica-Light" font-size="45.0" fill="#FEFFFF" transform="matrix(1.00, 0.00, -0.00, -1.00, 156.1, 66.0)">o</text><text xml:space="preserve" font-family="Helvetica-Light" font-size="45.0" fill="#FEFFFF" transform="matrix(1.00, 0.00, -0.00, -1.00, 181.1, 66.0)">l</text><text xml:space="preserve" font-family="Helvetica-Light" font-size="45.0" fill="#FEFFFF" transform="matrix(1.00, 0.00, -0.00, -1.00, 191.1, 66.0)">d</text><text xml:space="preserve" font-family="Helvetica-Light" font-size="45.0" fill="#FEFFFF" transform="matrix(1.00, 0.00, -0.00, -1.00, 218.6, 66.0)"> </text><text xml:space="preserve" font-family="Helvetica-Light" font-size="45.0" fill="#FEFFFF" transform="matrix(1.00, 0.00, -0.00, -1.00, 231.1, 66.0)">c</text><text xml:space="preserve" font-family="Helvetica-Light" font-size="45.0" fill="#FEFFFF" transform="matrix(1.00, 0.00, -0.00, -1.00, 256.1, 66.0)">o</text><text xml:space="preserve" font-family="Helvetica-Light" font-size="45.0" fill="#FEFFFF" transform="matrix(1.00, 0.00, -0.00, -1.00, 281.1, 66.0)">n</text><text xml:space="preserve" font-family="Helvetica-Light" font-size="45.0" fill="#FEFFFF" transform="matrix(1.00, 0.00, -0.00, -1.00, 306.1, 66.0)">t</text><text xml:space="preserve" font-family="Helvetica-Light" font-size="45.0" fill="#FEFFFF" transform="matrix(1.00, 0.00, -0.00, -1.00, 318.7, 66.0)">e</text><text xml:space="preserve" font-family="Helvetica-Light" font-size="45.0" fill="#FEFFFF" transform="matrix(1.00, 0.00, -0.00, -1.00, 343.7, 66.0)">n</text><text xml:space="preserve" font-family="Helvetica-Light" font-size="45.0" fill="#FEFFFF" transform="matrix(1.00, 0.00, -0.00, -1.00, 368.7, 66.0)">t</text><text xml:space="preserve" font-family="Helvetica-Light" font-size="45.0" fill="#FEFFFF" transform="matrix(1.00, 0.00, -0.00, -1.00, 381.2, 66.0)"> </text><text xml:space="preserve" font-family="Helvetica-Light" font-size="45.0" fill="#FEFFFF" transform="matrix(1.00, 0.00, -0.00, -1.00, 393.7, 66.0)">a</text><text xml:space="preserve" font-family="Helvetica-Light" font-size="45.0" fill="#FEFFFF" transform="matrix(1.00, 0.00, -0.00, -1.00, 418.7, 66.0)">n</text><text xml:space="preserve" font-family="Helvetica-Light" font-size="45.0" fill="#FEFFFF" transform="matrix(1.00, 0.00, -0.00, -1.00, 443.8, 66.0)">d</text><text xml:space="preserve" font-family="Helvetica-Light" font-size="45.0" fill="#FEFFFF" transform="matrix(1.00, 0.00, -0.00, -1.00, 471.2, 66.0)"> </text><text xml:space="preserve" font-family="Helvetica-Light" font-size="45.0" fill="#FEFFFF" transform="matrix(1.00, 0.00, -0.00, -1.00, 1.0, 12.0)">a</text><text xml:space="preserve" font-family="Helvetica-Light" font-size="45.0" fill="#FEFFFF" transform="matrix(1.00, 0.00, -0.00, -1.00, 26.0, 12.0)">r</text><text xml:space="preserve" font-family="Helvetica-Light" font-size="45.0" fill="#FEFFFF" transform="matrix(1.00, 0.00, -0.00, -1.00, 40.2, 12.0)">e</text><text xml:space="preserve" font-family="Helvetica-Light" font-size="45.0" fill="#FEFFFF" transform="matrix(1.00, 0.00, -0.00, -1.00, 65.2, 12.0)"> </text><text xml:space="preserve" font-family="Helvetica-Light" font-size="45.0" fill="#FEFFFF" transform="matrix(1.00, 0.00, -0.00, -1.00, 77.7, 12.0)">u</text><text xml:space="preserve" font-family="Helvetica-Light" font-size="45.0" fill="#FEFFFF" transform="matrix(1.00, 0.00, -0.00, -1.00, 102.7, 12.0)">s</text><text xml:space="preserve" font-family="Helvetica-Light" font-size="45.0" fill="#FEFFFF" transform="matrix(1.00, 0.00, -0.00, -1.00, 125.2, 12.0)">e</text><text xml:space="preserve" font-family="Helvetica-Light" font-size="45.0" fill="#FEFFFF" transform="matrix(1.00, 0.00, -0.00, -1.00, 150.3, 12.0)">d</text><text xml:space="preserve" font-family="Helvetica-Light" font-size="45.0" fill="#FEFFFF" transform="matrix(1.00, 0.00, -0.00, -1.00, 177.8, 12.0)"> </text><text xml:space="preserve" font-family="Helvetica-Light" font-size="45.0" fill="#FEFFFF" transform="matrix(1.00, 0.00, -0.00, -1.00, 190.3, 12.0)">t</text><text xml:space="preserve" font-family="Helvetica-Light" font-size="45.0" fill="#FEFFFF" transform="matrix(1.00, 0.00, -0.00, -1.00, 202.8, 12.0)">o</text><text xml:space="preserve" font-family="Helvetica-Light" font-size="45.0" fill="#FEFFFF" transform="matrix(1.00, 0.00, -0.00, -1.00, 227.8, 12.0)"> </text><text xml:space="preserve" font-family="Helvetica-Light" font-size="45.0" fill="#FEFFFF" transform="matrix(1.00, 0.00, -0.00, -1.00, 240.3, 12.0)">c</text><text xml:space="preserve" font-family="Helvetica-Light" font-size="45.0" fill="#FEFFFF" transform="matrix(1.00, 0.00, -0.00, -1.00, 265.3, 12.0)">o</text><text xml:space="preserve" font-family="Helvetica-Light" font-size="45.0" fill="#FEFFFF" transform="matrix(1.00, 0.00, -0.00, -1.00, 290.3, 12.0)">n</text><text xml:space="preserve" font-family="Helvetica-Light" font-size="45.0" fill="#FEFFFF" transform="matrix(1.00, 0.00, -0.00, -1.00, 315.4, 12.0)">t</text><text xml:space="preserve" font-family="Helvetica-Light" font-size="45.0" fill="#FEFFFF" transform="matrix(1.00, 0.00, -0.00, -1.00, 327.9, 12.0)">r</text><text xml:space="preserve" font-family="Helvetica-Light" font-size="45.0" fill="#FEFFFF" transform="matrix(1.00, 0.00, -0.00, -1.00, 342.1, 12.0)">o</text><text xml:space="preserve" font-family="Helvetica-Light" font-size="45.0" fill="#FEFFFF" transform="matrix(1.00, 0.00, -0.00, -1.00, 367.1, 12.0)">l</text><text xml:space="preserve" font-family="Helvetica-Light" font-size="45.0" fill="#FEFFFF" transform="matrix(1.00, 0.00, -0.00, -1.00, 377.1, 12.0)"> </text><text xml:space="preserve" font-family="Helvetica-Light" font-size="45.0" fill="#FEFFFF" transform="matrix(1.00, 0.00, -0.00, -1.00, 389.6, 12.0)">p</text><text xml:space="preserve" font-family="Helvetica-Light" font-size="45.0" fill="#FEFFFF" transform="matrix(1.00, 0.00, -0.00, -1.00, 417.1, 12.0)">a</text><text xml:space="preserve" font-family="Helvetica-Light" font-size="45.0" fill="#FEFFFF" transform="matrix(1.00, 0.00, -0.00, -1.00, 442.1, 12.0)">g</text><text xml:space="preserve" font-family="Helvetica-Light" font-size="45.0" fill="#FEFFFF" transform="matrix(1.00, 0.00, -0.00, -1.00, 469.6, 12.0)">e</text><text xml:space="preserve" font-family="Helvetica-Light" font-size="45.0" fill="#FEFFFF" transform="matrix(1.00, 0.00, -0.00, -1.00, 494.6, 12.0)"> </text><text xml:space="preserve" font-family="Helvetica-Light" font-size="45.0" fill="#FEFFFF" transform="matrix(1.00, 0.00, -0.00, -1.00, 507.1, 12.0)">l</text><text xml:space="preserve" font-family="Helvetica-Light" font-size="45.0" fill="#FEFFFF" transform="matrix(1.00, 0.00, -0.00, -1.00, 517.1, 12.0)">a</text><text xml:space="preserve" font-family="Helvetica-Light" font-size="45.0" fill="#FEFFFF" transform="matrix(1.00, 0.00, -0.00, -1.00, 542.1, 12.0)">y</text><text xml:space="preserve" font-family="Helvetica-Light" font-size="45.0" fill="#FEFFFF" transform="matrix(1.00, 0.00, -0.00, -1.00, 564.6, 12.0)">o</text><text xml:space="preserve" font-family="Helvetica-Light" font-size="45.0" fill="#FEFFFF" transform="matrix(1.00, 0.00, -0.00, -1.00, 589.6, 12.0)">u</text><text xml:space="preserve" font-family="Helvetica-Light" font-size="45.0" fill="#FEFFFF" transform="matrix(1.00, 0.00, -0.00, -1.00, 614.7, 12.0)">t</text><text xml:space="preserve" font-family="Helvetica-Light" font-size="45.0" fill="#FEFFFF" transform="matrix(1.00, 0.00, -0.00, -1.00, 627.2, 12.0)">s</text><text xml:space="preserve" font-family="Helvetica-Light" font-size="45.0" fill="#FEFFFF" transform="matrix(1.00, 0.00, -0.00, -1.00, 649.7, 12.0)">.</text></g></svg>