<?xml version="1.0" encoding="UTF-8" standalone="no"?><svg xmlns="http://www.w3.org/2000/svg" xmlns:xlink="http://www.w3.org/1999/xlink" clip-rule="evenodd" stroke-miterlimit="4.00" viewBox="0 0 1024 768"><desc>SVG generated by Keynote</desc><defs></defs><g transform="matrix(1.00, 0.00, -0.00, -1.00, 0.0, 768.0)"><path d="M 0.0 768.0 L 1024.0 768.0 L 1024.0 0.0 L 0.0 0.0 Z M 0.0 768.0 " fill="#000000"></path><text xml:space="preserve" font-family="Helvetica-Light" font-size="54.0" fill="#FEFFFF" transform="matrix(1.00, 0.00, -0.00, -1.00, 173.0, 684.0)">B</text><text xml:space="preserve" font-family="Helvetica-Light" font-size="54.0" fill="#FEFFFF" transform="matrix(1.00, 0.00, -0.00, -1.00, 209.0, 684.0)">l</text><text xml:space="preserve" font-family="Helvetica-Light" font-size="54.0" fill="#FEFFFF" transform="matrix(1.00, 0.00, -0.00, -1.00, 221.0, 684.0)">o</text><text xml:space="preserve" font-family="Helvetica-Light" font-size="54.0" fill="#FEFFFF" transform="matrix(1.00, 0.00, -0.00, -1.00, 251.0, 684.0)">c</text><text xml:space="preserve" font-family="Helvetica-Light" font-size="54.0" fill="#FEFFFF" transform="matrix(1.00, 0.00, -0.00, -1.00, 281.1, 684.0)">k</text><text xml:space="preserve" font-family="Helvetica-Light" font-size="54.0" fill="#FEFFFF" transform="matrix(1.00, 0.00, -0.00, -1.00, 308.1, 684.0)">-</text><text xml:space="preserve" font-family="Helvetica-Light" font-size="54.0" fill="#FEFFFF" transform="matrix(1.00, 0.00, -0.00, -1.00, 326.0, 684.0)">l</text><text xml:space="preserve" font-family="Helvetica-Light" font-size="54.0" fill="#FEFFFF" transform="matrix(1.00, 0.00, -0.00, -1.00, 338.0, 684.0)">e</text><text xml:space="preserve" font-family="Helvetica-Light" font-size="54.0" fill="#FEFFFF" transform="matrix(1.00, 0.00, -0.00, -1.00, 368.0, 684.0)">v</text><text xml:space="preserve" font-family="Helvetica-Light" font-size="54.0" fill="#FEFFFF" transform="matrix(1.00, 0.00, -0.00, -1.00, 395.0, 684.0)">e</text><text xml:space="preserve" font-family="Helvetica-Light" font-size="54.0" fill="#FEFFFF" transform="matrix(1.00, 0.00, -0.00, -1.00, 425.1, 684.0)">l</text><text xml:space="preserve" font-family="Helvetica-Light" font-size="54.0" fill="#FEFFFF" transform="matrix(1.00, 0.00, -0.00, -1.00, 437.1, 684.0)"> </text><text xml:space="preserve" font-family="Helvetica-Light" font-size="54.0" fill="#FEFFFF" transform="matrix(1.00, 0.00, -0.00, -1.00, 452.1, 684.0)">D</text><text xml:space="preserve" font-family="Helvetica-Light" font-size="54.0" fill="#FEFFFF" transform="matrix(1.00, 0.00, -0.00, -1.00, 491.1, 684.0)">e</text><text xml:space="preserve" font-family="Helvetica-Light" font-size="54.0" fill="#FEFFFF" transform="matrix(1.00, 0.00, -0.00, -1.00, 521.1, 684.0)">f</text><text xml:space="preserve" font-family="Helvetica-Light" font-size="54.0" fill="#FEFFFF" transform="matrix(1.00, 0.00, -0.00, -1.00, 536.1, 684.0)">a</text><text xml:space="preserve" font-family="Helvetica-Light" font-size="54.0" fill="#FEFFFF" transform="matrix(1.00, 0.00, -0.00, -1.00, 566.1, 684.0)">u</text><text xml:space="preserve" font-family="Helvetica-Light" font-size="54.0" fill="#FEFFFF" transform="matrix(1.00, 0.00, -0.00, -1.00, 596.1, 684.0)">l</text><text xml:space="preserve" font-family="Helvetica-Light" font-size="54.0" fill="#FEFFFF" transform="matrix(1.00, 0.00, -0.00, -1.00, 608.1, 684.0)">t</text><text xml:space="preserve" font-family="Helvetica-Light" font-size="54.0" fill="#FEFFFF" transform="matrix(1.00, 0.00, -0.00, -1.00, 623.1, 684.0)"> </text><text xml:space="preserve" font-family="Helvetica-Light" font-size="54.0" fill="#FEFFFF" transform="matrix(1.00, 0.00, -0.00, -1.00, 638.2, 684.0)">B</text><text xml:space="preserve" font-family="Helvetica-Light" font-size="54.0" fill="#FEFFFF" transform="matrix(1.00, 0.00, -0.00, -1.00, 674.2, 684.0)">e</text><text xml:space="preserve" font-family="Helvetica-Light" font-size="54.0" fill="#FEFFFF" transform="matrix(1.00, 0.00, -0.00, -1.00, 704.2, 684.0)">h</text><text xml:space="preserve" font-family="Helvetica-Light" font-size="54.0" fill="#FEFFFF" transform="matrix(1.00, 0.00, -0.00, -1.00, 734.2, 684.0)">a</text><text xml:space="preserve" font-family="Helvetica-Light" font-size="54.0" fill="#FEFFFF" transform="matrix(1.00, 0.00, -0.00, -1.00, 764.2, 684.0)">v</text><text xml:space="preserve" font-family="Helvetica-Light" font-size="54.0" fill="#FEFFFF" transform="matrix(1.00, 0.00, -0.00, -1.00, 791.2, 684.0)">i</text><text xml:space="preserve" font-family="Helvetica-Light" font-size="54.0" fill="#FEFFFF" transform="matrix(1.00, 0.00, -0.00, -1.00, 803.2, 684.0)">o</text><text xml:space="preserve" font-family="Helvetica-Light" font-size="54.0" fill="#FEFFFF" transform="matrix(1.00, 0.00, -0.00, -1.00, 833.3, 684.0)">r</text><image xlink:href="ED199B31D03EFEB286E0F5B8DEBADAC6.png" width="392.00" height="391.00" transform="matrix(1.00, 0.00, -0.00, -1.00, 24.0, 635.0)"></image><image xlink:href="C50F86B372E46216CE2284626B71C38D.png" width="498.00" height="506.00" transform="matrix(1.00, 0.00, -0.00, -1.00, 452.0, 637.0)"></image></g></svg>