<?xml version="1.0" encoding="UTF-8" standalone="no"?><svg xmlns="http://www.w3.org/2000/svg" xmlns:xlink="http://www.w3.org/1999/xlink" clip-rule="evenodd" stroke-miterlimit="4.00" viewBox="0 0 1024 768"><desc>SVG generated by Keynote</desc><defs></defs><g transform="matrix(1.00, 0.00, -0.00, -1.00, 0.0, 768.0)"><path d="M 0.0 768.0 L 1024.0 768.0 L 1024.0 0.0 L 0.0 0.0 Z M 0.0 768.0 " fill="#000000"></path><image xlink:href="../../CA035CDF-5435-416F-AB4E-98AE70E5E3E3/assets/A52AE3FA4AFCDD3B2B356609E2D3738E.png" width="644.00" height="540.00" transform="matrix(1.23, 0.00, -0.00, -1.23, 103.0, 698.0)"></image><text xml:space="preserve" font-family="Helvetica-Light" font-size="36.0" fill="#FEFFFF" transform="matrix(1.00, 0.00, -0.00, -1.00, 426.0, 723.0)">B</text><text xml:space="preserve" font-family="Helvetica-Light" font-size="36.0" fill="#FEFFFF" transform="matrix(1.00, 0.00, -0.00, -1.00, 450.0, 723.0)">o</text><text xml:space="preserve" font-family="Helvetica-Light" font-size="36.0" fill="#FEFFFF" transform="matrix(1.00, 0.00, -0.00, -1.00, 470.0, 723.0)">x</text><text xml:space="preserve" font-family="Helvetica-Light" font-size="36.0" fill="#FEFFFF" transform="matrix(1.00, 0.00, -0.00, -1.00, 488.0, 723.0)"> </text><text xml:space="preserve" font-family="Helvetica-Light" font-size="36.0" fill="#FEFFFF" transform="matrix(1.00, 0.00, -0.00, -1.00, 498.0, 723.0)">M</text><text xml:space="preserve" font-family="Helvetica-Light" font-size="36.0" fill="#FEFFFF" transform="matrix(1.00, 0.00, -0.00, -1.00, 528.0, 723.0)">o</text><text xml:space="preserve" font-family="Helvetica-Light" font-size="36.0" fill="#FEFFFF" transform="matrix(1.00, 0.00, -0.00, -1.00, 548.0, 723.0)">d</text><text xml:space="preserve" font-family="Helvetica-Light" font-size="36.0" fill="#FEFFFF" transform="matrix(1.00, 0.00, -0.00, -1.00, 570.0, 723.0)">e</text><text xml:space="preserve" font-family="Helvetica-Light" font-size="36.0" fill="#FEFFFF" transform="matrix(1.00, 0.00, -0.00, -1.00, 590.1, 723.0)">l</text><text xml:space="preserve" font-family="Helvetica-Light" font-size="25.0" fill="#FEFFFF" transform="matrix(1.00, 0.00, -0.00, -1.00, 133.0, 358.0)">M</text><text xml:space="preserve" font-family="Helvetica-Light" font-size="25.0" fill="#FEFFFF" transform="matrix(1.00, 0.00, -0.00, -1.00, 153.8, 358.0)">a</text><text xml:space="preserve" font-family="Helvetica-Light" font-size="25.0" fill="#FEFFFF" transform="matrix(1.00, 0.00, -0.00, -1.00, 167.7, 358.0)">r</text><text xml:space="preserve" font-family="Helvetica-Light" font-size="25.0" fill="#FEFFFF" transform="matrix(1.00, 0.00, -0.00, -1.00, 176.1, 358.0)">g</text><text xml:space="preserve" font-family="Helvetica-Light" font-size="25.0" fill="#FEFFFF" transform="matrix(1.00, 0.00, -0.00, -1.00, 191.3, 358.0)">i</text><text xml:space="preserve" font-family="Helvetica-Light" font-size="25.0" fill="#FEFFFF" transform="matrix(1.00, 0.00, -0.00, -1.00, 196.9, 358.0)">n</text><text xml:space="preserve" font-family="Helvetica-Light" font-size="25.0" fill="#FEFFFF" transform="matrix(1.00, 0.00, -0.00, -1.00, 210.8, 358.0)">:</text><text xml:space="preserve" font-family="Helvetica-Light" font-size="25.0" fill="#FEFFFF" transform="matrix(1.00, 0.00, -0.00, -1.00, 217.7, 358.0)"> </text><text xml:space="preserve" font-family="Helvetica-Light" font-size="25.0" fill="#FEFFFF" transform="matrix(1.00, 0.00, -0.00, -1.00, 224.7, 358.0)">a</text><text xml:space="preserve" font-family="Helvetica-Light" font-size="25.0" fill="#FEFFFF" transform="matrix(1.00, 0.00, -0.00, -1.00, 238.6, 358.0)">u</text><text xml:space="preserve" font-family="Helvetica-Light" font-size="25.0" fill="#FEFFFF" transform="matrix(1.00, 0.00, -0.00, -1.00, 252.5, 358.0)">t</text><text xml:space="preserve" font-family="Helvetica-Light" font-size="25.0" fill="#FEFFFF" transform="matrix(1.00, 0.00, -0.00, -1.00, 259.4, 358.0)">o</text><text xml:space="preserve" font-family="Helvetica-Light" font-size="25.0" fill="#FEFFFF" transform="matrix(1.00, 0.00, -0.00, -1.00, 727.0, 358.0)">M</text><text xml:space="preserve" font-family="Helvetica-Light" font-size="25.0" fill="#FEFFFF" transform="matrix(1.00, 0.00, -0.00, -1.00, 747.8, 358.0)">a</text><text xml:space="preserve" font-family="Helvetica-Light" font-size="25.0" fill="#FEFFFF" transform="matrix(1.00, 0.00, -0.00, -1.00, 761.7, 358.0)">r</text><text xml:space="preserve" font-family="Helvetica-Light" font-size="25.0" fill="#FEFFFF" transform="matrix(1.00, 0.00, -0.00, -1.00, 770.0, 358.0)">g</text><text xml:space="preserve" font-family="Helvetica-Light" font-size="25.0" fill="#FEFFFF" transform="matrix(1.00, 0.00, -0.00, -1.00, 785.3, 358.0)">i</text><text xml:space="preserve" font-family="Helvetica-Light" font-size="25.0" fill="#FEFFFF" transform="matrix(1.00, 0.00, -0.00, -1.00, 790.9, 358.0)">n</text><text xml:space="preserve" font-family="Helvetica-Light" font-size="25.0" fill="#FEFFFF" transform="matrix(1.00, 0.00, -0.00, -1.00, 804.8, 358.0)">:</text><text xml:space="preserve" font-family="Helvetica-Light" font-size="25.0" fill="#FEFFFF" transform="matrix(1.00, 0.00, -0.00, -1.00, 811.7, 358.0)"> </text><text xml:space="preserve" font-family="Helvetica-Light" font-size="25.0" fill="#FEFFFF" transform="matrix(1.00, 0.00, -0.00, -1.00, 818.7, 358.0)">a</text><text xml:space="preserve" font-family="Helvetica-Light" font-size="25.0" fill="#FEFFFF" transform="matrix(1.00, 0.00, -0.00, -1.00, 832.6, 358.0)">u</text><text xml:space="preserve" font-family="Helvetica-Light" font-size="25.0" fill="#FEFFFF" transform="matrix(1.00, 0.00, -0.00, -1.00, 846.5, 358.0)">t</text><text xml:space="preserve" font-family="Helvetica-Light" font-size="25.0" fill="#FEFFFF" transform="matrix(1.00, 0.00, -0.00, -1.00, 853.4, 358.0)">o</text><path d="M 0.0 0.0 L 50.1 0.0 L 54.6 0.0 " fill="none" stroke="#010101" stroke-width="9.00" transform="matrix(-0.88, 0.48, 0.48, 0.88, 770.0, 121.0)"></path><path d="M 734.5 160.3 L 695.6 161.8 L 717.8 129.8 Z M 734.5 160.3 " fill="#010101"></path><text xml:space="preserve" font-family="Helvetica-Light" font-size="25.0" fill="#000000" transform="matrix(1.00, 0.00, -0.00, -1.00, 730.0, 98.0)">B</text><text xml:space="preserve" font-family="Helvetica-Light" font-size="25.0" fill="#000000" transform="matrix(1.00, 0.00, -0.00, -1.00, 746.7, 98.0)">o</text><text xml:space="preserve" font-family="Helvetica-Light" font-size="25.0" fill="#000000" transform="matrix(1.00, 0.00, -0.00, -1.00, 760.6, 98.0)">r</text><text xml:space="preserve" font-family="Helvetica-Light" font-size="25.0" fill="#000000" transform="matrix(1.00, 0.00, -0.00, -1.00, 768.5, 98.0)">d</text><text xml:space="preserve" font-family="Helvetica-Light" font-size="25.0" fill="#000000" transform="matrix(1.00, 0.00, -0.00, -1.00, 783.7, 98.0)">e</text><text xml:space="preserve" font-family="Helvetica-Light" font-size="25.0" fill="#000000" transform="matrix(1.00, 0.00, -0.00, -1.00, 797.6, 98.0)">r</text></g></svg>