<?xml version="1.0" encoding="UTF-8" standalone="no"?><svg xmlns="http://www.w3.org/2000/svg" xmlns:xlink="http://www.w3.org/1999/xlink" clip-rule="evenodd" stroke-miterlimit="4.00" viewBox="0 0 1024 768"><desc>SVG generated by Keynote</desc><defs></defs><g transform="matrix(1.00, 0.00, -0.00, -1.00, 0.0, 768.0)"><path d="M 0.0 768.0 L 1024.0 768.0 L 1024.0 0.0 L 0.0 0.0 Z M 0.0 768.0 " fill="#000000"></path><g><clipPath id="clip-754"><path d="M 208.8 638.0 L 319.1 638.0 L 319.1 587.9 L 208.8 587.9 Z M 208.8 638.0 "></path></clipPath><g clip-path="url(#clip-754)"><image xlink:href="../../26F48F0A-F591-4C46-BED7-ED6C9CCAF82A/assets/01BD9B630741A14858075F16353204BA.jpeg" width="178.00" height="178.00" transform="matrix(0.72, 0.00, -0.00, -0.72, 208.8, 638.0)"></image><path d="M 208.8 638.0 L 319.1 638.0 L 319.1 587.9 L 208.8 587.9 Z M 208.8 638.0 " fill="#04599E" fill-opacity="0.85"></path></g></g><text xml:space="preserve" font-family="Helvetica-Light" font-size="54.0" fill="#FEFFFF" transform="matrix(1.00, 0.00, -0.00, -1.00, 266.0, 684.0)">I</text><text xml:space="preserve" font-family="Helvetica-Light" font-size="54.0" fill="#FEFFFF" transform="matrix(1.00, 0.00, -0.00, -1.00, 281.0, 684.0)">n</text><text xml:space="preserve" font-family="Helvetica-Light" font-size="54.0" fill="#FEFFFF" transform="matrix(1.00, 0.00, -0.00, -1.00, 311.0, 684.0)">l</text><text xml:space="preserve" font-family="Helvetica-Light" font-size="54.0" fill="#FEFFFF" transform="matrix(1.00, 0.00, -0.00, -1.00, 323.0, 684.0)">i</text><text xml:space="preserve" font-family="Helvetica-Light" font-size="54.0" fill="#FEFFFF" transform="matrix(1.00, 0.00, -0.00, -1.00, 335.0, 684.0)">n</text><text xml:space="preserve" font-family="Helvetica-Light" font-size="54.0" fill="#FEFFFF" transform="matrix(1.00, 0.00, -0.00, -1.00, 365.0, 684.0)">e</text><text xml:space="preserve" font-family="Helvetica-Light" font-size="54.0" fill="#FEFFFF" transform="matrix(1.00, 0.00, -0.00, -1.00, 395.1, 684.0)">-</text><text xml:space="preserve" font-family="Helvetica-Light" font-size="54.0" fill="#FEFFFF" transform="matrix(1.00, 0.00, -0.00, -1.00, 413.0, 684.0)">l</text><text xml:space="preserve" font-family="Helvetica-Light" font-size="54.0" fill="#FEFFFF" transform="matrix(1.00, 0.00, -0.00, -1.00, 425.0, 684.0)">e</text><text xml:space="preserve" font-family="Helvetica-Light" font-size="54.0" fill="#FEFFFF" transform="matrix(1.00, 0.00, -0.00, -1.00, 455.1, 684.0)">v</text><text xml:space="preserve" font-family="Helvetica-Light" font-size="54.0" fill="#FEFFFF" transform="matrix(1.00, 0.00, -0.00, -1.00, 482.1, 684.0)">e</text><text xml:space="preserve" font-family="Helvetica-Light" font-size="54.0" fill="#FEFFFF" transform="matrix(1.00, 0.00, -0.00, -1.00, 512.1, 684.0)">l</text><text xml:space="preserve" font-family="Helvetica-Light" font-size="54.0" fill="#FEFFFF" transform="matrix(1.00, 0.00, -0.00, -1.00, 524.1, 684.0)"> </text><text xml:space="preserve" font-family="Helvetica-Light" font-size="54.0" fill="#FEFFFF" transform="matrix(1.00, 0.00, -0.00, -1.00, 539.1, 684.0)">e</text><text xml:space="preserve" font-family="Helvetica-Light" font-size="54.0" fill="#FEFFFF" transform="matrix(1.00, 0.00, -0.00, -1.00, 569.1, 684.0)">l</text><text xml:space="preserve" font-family="Helvetica-Light" font-size="54.0" fill="#FEFFFF" transform="matrix(1.00, 0.00, -0.00, -1.00, 581.1, 684.0)">e</text><text xml:space="preserve" font-family="Helvetica-Light" font-size="54.0" fill="#FEFFFF" transform="matrix(1.00, 0.00, -0.00, -1.00, 611.1, 684.0)">m</text><text xml:space="preserve" font-family="Helvetica-Light" font-size="54.0" fill="#FEFFFF" transform="matrix(1.00, 0.00, -0.00, -1.00, 656.1, 684.0)">e</text><text xml:space="preserve" font-family="Helvetica-Light" font-size="54.0" fill="#FEFFFF" transform="matrix(1.00, 0.00, -0.00, -1.00, 686.1, 684.0)">n</text><text xml:space="preserve" font-family="Helvetica-Light" font-size="54.0" fill="#FEFFFF" transform="matrix(1.00, 0.00, -0.00, -1.00, 716.1, 684.0)">t</text><text xml:space="preserve" font-family="Helvetica-Light" font-size="54.0" fill="#FEFFFF" transform="matrix(1.00, 0.00, -0.00, -1.00, 731.2, 684.0)">s</text><text xml:space="preserve" font-family="Helvetica-Light" font-size="23.2" fill="#FEFFFF" transform="matrix(1.00, 0.00, -0.00, -1.00, 48.5, 504.6)">•</text><text xml:space="preserve" font-family="Helvetica-Light" font-size="31.0" fill="#FEFFFF" transform="matrix(1.00, 0.00, -0.00, -1.00, 77.0, 502.0)">T</text><text xml:space="preserve" font-family="Helvetica-Light" font-size="31.0" fill="#FEFFFF" transform="matrix(1.00, 0.00, -0.00, -1.00, 90.8, 502.0)">a</text><text xml:space="preserve" font-family="Helvetica-Light" font-size="31.0" fill="#FEFFFF" transform="matrix(1.00, 0.00, -0.00, -1.00, 108.0, 502.0)">k</text><text xml:space="preserve" font-family="Helvetica-Light" font-size="31.0" fill="#FEFFFF" transform="matrix(1.00, 0.00, -0.00, -1.00, 123.5, 502.0)">e</text><text xml:space="preserve" font-family="Helvetica-Light" font-size="31.0" fill="#FEFFFF" transform="matrix(1.00, 0.00, -0.00, -1.00, 140.8, 502.0)">s</text><text xml:space="preserve" font-family="Helvetica-Light" font-size="31.0" fill="#FEFFFF" transform="matrix(1.00, 0.00, -0.00, -1.00, 156.3, 502.0)"> </text><text xml:space="preserve" font-family="Helvetica-Light" font-size="31.0" fill="#FEFFFF" transform="matrix(1.00, 0.00, -0.00, -1.00, 164.9, 502.0)">u</text><text xml:space="preserve" font-family="Helvetica-Light" font-size="31.0" fill="#FEFFFF" transform="matrix(1.00, 0.00, -0.00, -1.00, 182.1, 502.0)">p</text><text xml:space="preserve" font-family="Helvetica-Light" font-size="31.0" fill="#FEFFFF" transform="matrix(1.00, 0.00, -0.00, -1.00, 201.1, 502.0)"> </text><text xml:space="preserve" font-family="Helvetica-Light" font-size="31.0" fill="#FEFFFF" transform="matrix(1.00, 0.00, -0.00, -1.00, 209.7, 502.0)">t</text><text xml:space="preserve" font-family="Helvetica-Light" font-size="31.0" fill="#FEFFFF" transform="matrix(1.00, 0.00, -0.00, -1.00, 218.3, 502.0)">h</text><text xml:space="preserve" font-family="Helvetica-Light" font-size="31.0" fill="#FEFFFF" transform="matrix(1.00, 0.00, -0.00, -1.00, 235.5, 502.0)">e</text><text xml:space="preserve" font-family="Helvetica-Light" font-size="31.0" fill="#FEFFFF" transform="matrix(1.00, 0.00, -0.00, -1.00, 252.8, 502.0)"> </text><text xml:space="preserve" font-family="Helvetica-Light" font-size="31.0" fill="#FEFFFF" transform="matrix(1.00, 0.00, -0.00, -1.00, 261.4, 502.0)">w</text><text xml:space="preserve" font-family="Helvetica-Light" font-size="31.0" fill="#FEFFFF" transform="matrix(1.00, 0.00, -0.00, -1.00, 283.8, 502.0)">i</text><text xml:space="preserve" font-family="Helvetica-Light" font-size="31.0" fill="#FEFFFF" transform="matrix(1.00, 0.00, -0.00, -1.00, 290.7, 502.0)">d</text><text xml:space="preserve" font-family="Helvetica-Light" font-size="31.0" fill="#FEFFFF" transform="matrix(1.00, 0.00, -0.00, -1.00, 309.6, 502.0)">t</text><text xml:space="preserve" font-family="Helvetica-Light" font-size="31.0" fill="#FEFFFF" transform="matrix(1.00, 0.00, -0.00, -1.00, 318.2, 502.0)">h</text><text xml:space="preserve" font-family="Helvetica-Light" font-size="31.0" fill="#FEFFFF" transform="matrix(1.00, 0.00, -0.00, -1.00, 335.4, 502.0)"> </text><text xml:space="preserve" font-family="Helvetica-Light" font-size="31.0" fill="#FEFFFF" transform="matrix(1.00, 0.00, -0.00, -1.00, 344.1, 502.0)">n</text><text xml:space="preserve" font-family="Helvetica-Light" font-size="31.0" fill="#FEFFFF" transform="matrix(1.00, 0.00, -0.00, -1.00, 361.3, 502.0)">e</text><text xml:space="preserve" font-family="Helvetica-Light" font-size="31.0" fill="#FEFFFF" transform="matrix(1.00, 0.00, -0.00, -1.00, 378.5, 502.0)">c</text><text xml:space="preserve" font-family="Helvetica-Light" font-size="31.0" fill="#FEFFFF" transform="matrix(1.00, 0.00, -0.00, -1.00, 395.8, 502.0)">e</text><text xml:space="preserve" font-family="Helvetica-Light" font-size="31.0" fill="#FEFFFF" transform="matrix(1.00, 0.00, -0.00, -1.00, 413.0, 502.0)">s</text><text xml:space="preserve" font-family="Helvetica-Light" font-size="31.0" fill="#FEFFFF" transform="matrix(1.00, 0.00, -0.00, -1.00, 428.5, 502.0)">s</text><text xml:space="preserve" font-family="Helvetica-Light" font-size="31.0" fill="#FEFFFF" transform="matrix(1.00, 0.00, -0.00, -1.00, 444.0, 502.0)">a</text><text xml:space="preserve" font-family="Helvetica-Light" font-size="31.0" fill="#FEFFFF" transform="matrix(1.00, 0.00, -0.00, -1.00, 461.2, 502.0)">r</text><text xml:space="preserve" font-family="Helvetica-Light" font-size="31.0" fill="#FEFFFF" transform="matrix(1.00, 0.00, -0.00, -1.00, 472.1, 502.0)">y</text><text xml:space="preserve" font-family="Helvetica-Light" font-size="31.0" fill="#FEFFFF" transform="matrix(1.00, 0.00, -0.00, -1.00, 487.6, 502.0)"> </text><text xml:space="preserve" font-family="Helvetica-Light" font-size="23.2" fill="#FEFFFF" transform="matrix(1.00, 0.00, -0.00, -1.00, 48.5, 467.6)">•</text><text xml:space="preserve" font-family="Helvetica-Light" font-size="31.0" fill="#FEFFFF" transform="matrix(1.00, 0.00, -0.00, -1.00, 77.0, 465.0)">D</text><text xml:space="preserve" font-family="Helvetica-Light" font-size="31.0" fill="#FEFFFF" transform="matrix(1.00, 0.00, -0.00, -1.00, 99.4, 465.0)">o</text><text xml:space="preserve" font-family="Helvetica-Light" font-size="31.0" fill="#FEFFFF" transform="matrix(1.00, 0.00, -0.00, -1.00, 116.6, 465.0)">e</text><text xml:space="preserve" font-family="Helvetica-Light" font-size="31.0" fill="#FEFFFF" transform="matrix(1.00, 0.00, -0.00, -1.00, 133.9, 465.0)">s</text><text xml:space="preserve" font-family="Helvetica-Light" font-size="31.0" fill="#FEFFFF" transform="matrix(1.00, 0.00, -0.00, -1.00, 149.4, 465.0)"> </text><text xml:space="preserve" font-family="Helvetica-Light" font-size="31.0" fill="#FEFFFF" transform="matrix(1.00, 0.00, -0.00, -1.00, 158.0, 465.0)">n</text><text xml:space="preserve" font-family="Helvetica-Light" font-size="31.0" fill="#FEFFFF" transform="matrix(1.00, 0.00, -0.00, -1.00, 175.2, 465.0)">o</text><text xml:space="preserve" font-family="Helvetica-Light" font-size="31.0" fill="#FEFFFF" transform="matrix(1.00, 0.00, -0.00, -1.00, 192.4, 465.0)">t</text><text xml:space="preserve" font-family="Helvetica-Light" font-size="31.0" fill="#FEFFFF" transform="matrix(1.00, 0.00, -0.00, -1.00, 201.1, 465.0)"> </text><text xml:space="preserve" font-family="Helvetica-Light" font-size="31.0" fill="#FEFFFF" transform="matrix(1.00, 0.00, -0.00, -1.00, 209.7, 465.0)">s</text><text xml:space="preserve" font-family="Helvetica-Light" font-size="31.0" fill="#FEFFFF" transform="matrix(1.00, 0.00, -0.00, -1.00, 225.2, 465.0)">t</text><text xml:space="preserve" font-family="Helvetica-Light" font-size="31.0" fill="#FEFFFF" transform="matrix(1.00, 0.00, -0.00, -1.00, 233.8, 465.0)">a</text><text xml:space="preserve" font-family="Helvetica-Light" font-size="31.0" fill="#FEFFFF" transform="matrix(1.00, 0.00, -0.00, -1.00, 251.0, 465.0)">r</text><text xml:space="preserve" font-family="Helvetica-Light" font-size="31.0" fill="#FEFFFF" transform="matrix(1.00, 0.00, -0.00, -1.00, 261.9, 465.0)">t</text><text xml:space="preserve" font-family="Helvetica-Light" font-size="31.0" fill="#FEFFFF" transform="matrix(1.00, 0.00, -0.00, -1.00, 270.5, 465.0)"> </text><text xml:space="preserve" font-family="Helvetica-Light" font-size="31.0" fill="#FEFFFF" transform="matrix(1.00, 0.00, -0.00, -1.00, 279.2, 465.0)">a</text><text xml:space="preserve" font-family="Helvetica-Light" font-size="31.0" fill="#FEFFFF" transform="matrix(1.00, 0.00, -0.00, -1.00, 296.4, 465.0)"> </text><text xml:space="preserve" font-family="Helvetica-Light" font-size="31.0" fill="#FEFFFF" transform="matrix(1.00, 0.00, -0.00, -1.00, 305.0, 465.0)">f</text><text xml:space="preserve" font-family="Helvetica-Light" font-size="31.0" fill="#FEFFFF" transform="matrix(1.00, 0.00, -0.00, -1.00, 313.6, 465.0)">e</text><text xml:space="preserve" font-family="Helvetica-Light" font-size="31.0" fill="#FEFFFF" transform="matrix(1.00, 0.00, -0.00, -1.00, 330.9, 465.0)">w</text><text xml:space="preserve" font-family="Helvetica-Light" font-size="31.0" fill="#FEFFFF" transform="matrix(1.00, 0.00, -0.00, -1.00, 353.2, 465.0)"> </text><text xml:space="preserve" font-family="Helvetica-Light" font-size="31.0" fill="#FEFFFF" transform="matrix(1.00, 0.00, -0.00, -1.00, 361.9, 465.0)">l</text><text xml:space="preserve" font-family="Helvetica-Light" font-size="31.0" fill="#FEFFFF" transform="matrix(1.00, 0.00, -0.00, -1.00, 368.7, 465.0)">i</text><text xml:space="preserve" font-family="Helvetica-Light" font-size="31.0" fill="#FEFFFF" transform="matrix(1.00, 0.00, -0.00, -1.00, 375.6, 465.0)">n</text><text xml:space="preserve" font-family="Helvetica-Light" font-size="31.0" fill="#FEFFFF" transform="matrix(1.00, 0.00, -0.00, -1.00, 392.9, 465.0)">e</text><text xml:space="preserve" font-family="Helvetica-Light" font-size="31.0" fill="#FEFFFF" transform="matrix(1.00, 0.00, -0.00, -1.00, 410.1, 465.0)">.</text><text xml:space="preserve" font-family="Helvetica-Light" font-size="31.0" fill="#FEFFFF" transform="matrix(1.00, 0.00, -0.00, -1.00, 418.7, 465.0)"> </text><text xml:space="preserve" font-family="Helvetica-Light" font-size="23.2" fill="#FEFFFF" transform="matrix(1.00, 0.00, -0.00, -1.00, 48.5, 430.6)">•</text><text xml:space="preserve" font-family="Helvetica-Light" font-size="31.0" fill="#FEFFFF" transform="matrix(1.00, 0.00, -0.00, -1.00, 77.0, 428.0)">S</text><text xml:space="preserve" font-family="Helvetica-Light" font-size="31.0" fill="#FEFFFF" transform="matrix(1.00, 0.00, -0.00, -1.00, 95.9, 428.0)">t</text><text xml:space="preserve" font-family="Helvetica-Light" font-size="31.0" fill="#FEFFFF" transform="matrix(1.00, 0.00, -0.00, -1.00, 104.6, 428.0)">y</text><text xml:space="preserve" font-family="Helvetica-Light" font-size="31.0" fill="#FEFFFF" transform="matrix(1.00, 0.00, -0.00, -1.00, 120.1, 428.0)">l</text><text xml:space="preserve" font-family="Helvetica-Light" font-size="31.0" fill="#FEFFFF" transform="matrix(1.00, 0.00, -0.00, -1.00, 126.9, 428.0)">e</text><text xml:space="preserve" font-family="Helvetica-Light" font-size="31.0" fill="#FEFFFF" transform="matrix(1.00, 0.00, -0.00, -1.00, 144.2, 428.0)"> </text><text xml:space="preserve" font-family="Helvetica-Light" font-size="31.0" fill="#FEFFFF" transform="matrix(1.00, 0.00, -0.00, -1.00, 152.8, 428.0)">a</text><text xml:space="preserve" font-family="Helvetica-Light" font-size="31.0" fill="#FEFFFF" transform="matrix(1.00, 0.00, -0.00, -1.00, 170.0, 428.0)"> </text><text xml:space="preserve" font-family="Helvetica-Light" font-size="31.0" fill="#FEFFFF" transform="matrix(1.00, 0.00, -0.00, -1.00, 178.6, 428.0)">i</text><text xml:space="preserve" font-family="Helvetica-Light" font-size="31.0" fill="#FEFFFF" transform="matrix(1.00, 0.00, -0.00, -1.00, 185.5, 428.0)">n</text><text xml:space="preserve" font-family="Helvetica-Light" font-size="31.0" fill="#FEFFFF" transform="matrix(1.00, 0.00, -0.00, -1.00, 202.8, 428.0)">l</text><text xml:space="preserve" font-family="Helvetica-Light" font-size="31.0" fill="#FEFFFF" transform="matrix(1.00, 0.00, -0.00, -1.00, 209.6, 428.0)">i</text><text xml:space="preserve" font-family="Helvetica-Light" font-size="31.0" fill="#FEFFFF" transform="matrix(1.00, 0.00, -0.00, -1.00, 216.5, 428.0)">n</text><text xml:space="preserve" font-family="Helvetica-Light" font-size="31.0" fill="#FEFFFF" transform="matrix(1.00, 0.00, -0.00, -1.00, 233.8, 428.0)">e</text><text xml:space="preserve" font-family="Helvetica-Light" font-size="31.0" fill="#FEFFFF" transform="matrix(1.00, 0.00, -0.00, -1.00, 251.0, 428.0)">-</text><text xml:space="preserve" font-family="Helvetica-Light" font-size="31.0" fill="#FEFFFF" transform="matrix(1.00, 0.00, -0.00, -1.00, 261.3, 428.0)">l</text><text xml:space="preserve" font-family="Helvetica-Light" font-size="31.0" fill="#FEFFFF" transform="matrix(1.00, 0.00, -0.00, -1.00, 268.2, 428.0)">e</text><text xml:space="preserve" font-family="Helvetica-Light" font-size="31.0" fill="#FEFFFF" transform="matrix(1.00, 0.00, -0.00, -1.00, 285.4, 428.0)">v</text><text xml:space="preserve" font-family="Helvetica-Light" font-size="31.0" fill="#FEFFFF" transform="matrix(1.00, 0.00, -0.00, -1.00, 300.9, 428.0)">e</text><text xml:space="preserve" font-family="Helvetica-Light" font-size="31.0" fill="#FEFFFF" transform="matrix(1.00, 0.00, -0.00, -1.00, 318.2, 428.0)">l</text><text xml:space="preserve" font-family="Helvetica-Light" font-size="31.0" fill="#FEFFFF" transform="matrix(1.00, 0.00, -0.00, -1.00, 325.1, 428.0)"> </text><text xml:space="preserve" font-family="Helvetica-Light" font-size="31.0" fill="#FEFFFF" transform="matrix(1.00, 0.00, -0.00, -1.00, 333.7, 428.0)">e</text><text xml:space="preserve" font-family="Helvetica-Light" font-size="31.0" fill="#FEFFFF" transform="matrix(1.00, 0.00, -0.00, -1.00, 350.9, 428.0)">l</text><text xml:space="preserve" font-family="Helvetica-Light" font-size="31.0" fill="#FEFFFF" transform="matrix(1.00, 0.00, -0.00, -1.00, 357.8, 428.0)">e</text><text xml:space="preserve" font-family="Helvetica-Light" font-size="31.0" fill="#FEFFFF" transform="matrix(1.00, 0.00, -0.00, -1.00, 375.0, 428.0)">m</text><text xml:space="preserve" font-family="Helvetica-Light" font-size="31.0" fill="#FEFFFF" transform="matrix(1.00, 0.00, -0.00, -1.00, 400.9, 428.0)">e</text><text xml:space="preserve" font-family="Helvetica-Light" font-size="31.0" fill="#FEFFFF" transform="matrix(1.00, 0.00, -0.00, -1.00, 418.1, 428.0)">n</text><text xml:space="preserve" font-family="Helvetica-Light" font-size="31.0" fill="#FEFFFF" transform="matrix(1.00, 0.00, -0.00, -1.00, 435.3, 428.0)">t</text><text xml:space="preserve" font-family="Helvetica-Light" font-size="31.0" fill="#FEFFFF" transform="matrix(1.00, 0.00, -0.00, -1.00, 443.9, 428.0)"> </text><text xml:space="preserve" font-family="Helvetica-Light" font-size="31.0" fill="#FEFFFF" transform="matrix(1.00, 0.00, -0.00, -1.00, 452.6, 428.0)">t</text><text xml:space="preserve" font-family="Helvetica-Light" font-size="31.0" fill="#FEFFFF" transform="matrix(1.00, 0.00, -0.00, -1.00, 461.2, 428.0)">o</text><text xml:space="preserve" font-family="Helvetica-Light" font-size="31.0" fill="#FEFFFF" transform="matrix(1.00, 0.00, -0.00, -1.00, 478.4, 428.0)"> </text><text xml:space="preserve" font-family="Helvetica-Light" font-size="31.0" fill="#FEFFFF" transform="matrix(1.00, 0.00, -0.00, -1.00, 487.0, 428.0)">c</text><text xml:space="preserve" font-family="Helvetica-Light" font-size="31.0" fill="#FEFFFF" transform="matrix(1.00, 0.00, -0.00, -1.00, 504.3, 428.0)">h</text><text xml:space="preserve" font-family="Helvetica-Light" font-size="31.0" fill="#FEFFFF" transform="matrix(1.00, 0.00, -0.00, -1.00, 521.5, 428.0)">a</text><text xml:space="preserve" font-family="Helvetica-Light" font-size="31.0" fill="#FEFFFF" transform="matrix(1.00, 0.00, -0.00, -1.00, 538.7, 428.0)">n</text><text xml:space="preserve" font-family="Helvetica-Light" font-size="31.0" fill="#FEFFFF" transform="matrix(1.00, 0.00, -0.00, -1.00, 556.0, 428.0)">g</text><text xml:space="preserve" font-family="Helvetica-Light" font-size="31.0" fill="#FEFFFF" transform="matrix(1.00, 0.00, -0.00, -1.00, 574.9, 428.0)">e</text><text xml:space="preserve" font-family="Helvetica-Light" font-size="31.0" fill="#FEFFFF" transform="matrix(1.00, 0.00, -0.00, -1.00, 592.2, 428.0)"> </text><text xml:space="preserve" font-family="Helvetica-Light" font-size="31.0" fill="#FEFFFF" transform="matrix(1.00, 0.00, -0.00, -1.00, 600.8, 428.0)">t</text><text xml:space="preserve" font-family="Helvetica-Light" font-size="31.0" fill="#FEFFFF" transform="matrix(1.00, 0.00, -0.00, -1.00, 609.4, 428.0)">h</text><text xml:space="preserve" font-family="Helvetica-Light" font-size="31.0" fill="#FEFFFF" transform="matrix(1.00, 0.00, -0.00, -1.00, 626.6, 428.0)">a</text><text xml:space="preserve" font-family="Helvetica-Light" font-size="31.0" fill="#FEFFFF" transform="matrix(1.00, 0.00, -0.00, -1.00, 643.9, 428.0)">t</text><text xml:space="preserve" font-family="Helvetica-Light" font-size="31.0" fill="#FEFFFF" transform="matrix(1.00, 0.00, -0.00, -1.00, 652.5, 428.0)"> </text><text xml:space="preserve" font-family="Helvetica-Light" font-size="31.0" fill="#FEFFFF" transform="matrix(1.00, 0.00, -0.00, -1.00, 661.1, 428.0)">d</text><text xml:space="preserve" font-family="Helvetica-Light" font-size="31.0" fill="#FEFFFF" transform="matrix(1.00, 0.00, -0.00, -1.00, 680.0, 428.0)">e</text><text xml:space="preserve" font-family="Helvetica-Light" font-size="31.0" fill="#FEFFFF" transform="matrix(1.00, 0.00, -0.00, -1.00, 697.3, 428.0)">f</text><text xml:space="preserve" font-family="Helvetica-Light" font-size="31.0" fill="#FEFFFF" transform="matrix(1.00, 0.00, -0.00, -1.00, 705.9, 428.0)">a</text><text xml:space="preserve" font-family="Helvetica-Light" font-size="31.0" fill="#FEFFFF" transform="matrix(1.00, 0.00, -0.00, -1.00, 723.1, 428.0)">u</text><text xml:space="preserve" font-family="Helvetica-Light" font-size="31.0" fill="#FEFFFF" transform="matrix(1.00, 0.00, -0.00, -1.00, 740.4, 428.0)">l</text><text xml:space="preserve" font-family="Helvetica-Light" font-size="31.0" fill="#FEFFFF" transform="matrix(1.00, 0.00, -0.00, -1.00, 747.3, 428.0)">t</text><text xml:space="preserve" font-family="Helvetica-Light" font-size="31.0" fill="#FEFFFF" transform="matrix(1.00, 0.00, -0.00, -1.00, 755.9, 428.0)"> </text><text xml:space="preserve" font-family="Helvetica-Light" font-size="31.0" fill="#FEFFFF" transform="matrix(1.00, 0.00, -0.00, -1.00, 764.5, 428.0)">b</text><text xml:space="preserve" font-family="Helvetica-Light" font-size="31.0" fill="#FEFFFF" transform="matrix(1.00, 0.00, -0.00, -1.00, 783.4, 428.0)">e</text><text xml:space="preserve" font-family="Helvetica-Light" font-size="31.0" fill="#FEFFFF" transform="matrix(1.00, 0.00, -0.00, -1.00, 800.7, 428.0)">h</text><text xml:space="preserve" font-family="Helvetica-Light" font-size="31.0" fill="#FEFFFF" transform="matrix(1.00, 0.00, -0.00, -1.00, 817.9, 428.0)">a</text><text xml:space="preserve" font-family="Helvetica-Light" font-size="31.0" fill="#FEFFFF" transform="matrix(1.00, 0.00, -0.00, -1.00, 835.1, 428.0)">v</text><text xml:space="preserve" font-family="Helvetica-Light" font-size="31.0" fill="#FEFFFF" transform="matrix(1.00, 0.00, -0.00, -1.00, 850.6, 428.0)">i</text><text xml:space="preserve" font-family="Helvetica-Light" font-size="31.0" fill="#FEFFFF" transform="matrix(1.00, 0.00, -0.00, -1.00, 857.5, 428.0)">o</text><text xml:space="preserve" font-family="Helvetica-Light" font-size="31.0" fill="#FEFFFF" transform="matrix(1.00, 0.00, -0.00, -1.00, 874.8, 428.0)">r</text><text xml:space="preserve" font-family="Helvetica-Light" font-size="31.0" fill="#FEFFFF" transform="matrix(1.00, 0.00, -0.00, -1.00, 882.2, 428.0)">.</text><text xml:space="preserve" font-family="Helvetica-Light" font-size="31.0" fill="#FEFFFF" transform="matrix(1.00, 0.00, -0.00, -1.00, 890.8, 428.0)"> </text><g><clipPath id="clip-755"><path d="M 446.1 638.0 L 507.7 638.0 L 507.7 587.9 L 446.1 587.9 Z M 446.1 638.0 "></path></clipPath><g clip-path="url(#clip-755)"><image xlink:href="../../26F48F0A-F591-4C46-BED7-ED6C9CCAF82A/assets/01BD9B630741A14858075F16353204BA.jpeg" width="178.00" height="178.00" transform="matrix(0.72, 0.00, -0.00, -0.72, 446.1, 638.0)"></image><path d="M 446.1 638.0 L 507.7 638.0 L 507.7 587.9 L 446.1 587.9 Z M 446.1 638.0 " fill="#860E00" fill-opacity="0.88"></path></g></g><g><clipPath id="clip-756"><path d="M 342.7 638.8 L 432.3 638.8 L 432.3 587.2 L 342.7 587.2 Z M 342.7 638.8 "></path></clipPath><g clip-path="url(#clip-756)"><image xlink:href="../../26F48F0A-F591-4C46-BED7-ED6C9CCAF82A/assets/01BD9B630741A14858075F16353204BA.jpeg" width="178.00" height="178.00" transform="matrix(0.72, 0.00, -0.00, -0.72, 342.7, 638.8)"></image><path d="M 342.7 638.8 L 432.3 638.8 L 432.3 587.2 L 342.7 587.2 Z M 342.7 638.8 " fill="#CA7B13" fill-opacity="0.80"></path></g></g><text xml:space="preserve" font-family="Helvetica-Light" font-size="31.0" fill="#FEFFFF" transform="matrix(1.00, 0.00, -0.00, -1.00, 73.0, 604.0)">T</text><text xml:space="preserve" font-family="Helvetica-Light" font-size="31.0" fill="#FEFFFF" transform="matrix(1.00, 0.00, -0.00, -1.00, 86.8, 604.0)">a</text><text xml:space="preserve" font-family="Helvetica-Light" font-size="31.0" fill="#FEFFFF" transform="matrix(1.00, 0.00, -0.00, -1.00, 104.0, 604.0)">g</text><text xml:space="preserve" font-family="Helvetica-Light" font-size="31.0" fill="#FEFFFF" transform="matrix(1.00, 0.00, -0.00, -1.00, 123.0, 604.0)">s</text><text xml:space="preserve" font-family="Helvetica-Light" font-size="31.0" fill="#FEFFFF" transform="matrix(1.00, 0.00, -0.00, -1.00, 138.5, 604.0)"> </text><text xml:space="preserve" font-family="Helvetica-Light" font-size="31.0" fill="#FEFFFF" transform="matrix(1.00, 0.00, -0.00, -1.00, 147.1, 604.0)">l</text><text xml:space="preserve" font-family="Helvetica-Light" font-size="31.0" fill="#FEFFFF" transform="matrix(1.00, 0.00, -0.00, -1.00, 154.0, 604.0)">i</text><text xml:space="preserve" font-family="Helvetica-Light" font-size="31.0" fill="#FEFFFF" transform="matrix(1.00, 0.00, -0.00, -1.00, 160.9, 604.0)">k</text><text xml:space="preserve" font-family="Helvetica-Light" font-size="31.0" fill="#FEFFFF" transform="matrix(1.00, 0.00, -0.00, -1.00, 176.4, 604.0)">e</text><text xml:space="preserve" font-family="Helvetica-Light" font-size="31.0" fill="#FEFFFF" transform="matrix(1.00, 0.00, -0.00, -1.00, 193.6, 604.0)">:</text><text xml:space="preserve" font-family="Helvetica-Light" font-size="31.0" fill="#FEFFFF" transform="matrix(1.00, 0.00, -0.00, -1.00, 202.2, 604.0)"> </text><text xml:space="preserve" font-family="Helvetica-Light" font-size="31.0" fill="#FEFFFF" transform="matrix(1.00, 0.00, -0.00, -1.00, 210.8, 604.0)">&lt;</text><text xml:space="preserve" font-family="Helvetica-Light" font-size="31.0" fill="#FEFFFF" transform="matrix(1.00, 0.00, -0.00, -1.00, 231.3, 604.0)">s</text><text xml:space="preserve" font-family="Helvetica-Light" font-size="31.0" fill="#FEFFFF" transform="matrix(1.00, 0.00, -0.00, -1.00, 246.8, 604.0)">p</text><text xml:space="preserve" font-family="Helvetica-Light" font-size="31.0" fill="#FEFFFF" transform="matrix(1.00, 0.00, -0.00, -1.00, 265.7, 604.0)">a</text><text xml:space="preserve" font-family="Helvetica-Light" font-size="31.0" fill="#FEFFFF" transform="matrix(1.00, 0.00, -0.00, -1.00, 283.0, 604.0)">n</text><text xml:space="preserve" font-family="Helvetica-Light" font-size="31.0" fill="#FEFFFF" transform="matrix(1.00, 0.00, -0.00, -1.00, 300.2, 604.0)">&gt;</text><text xml:space="preserve" font-family="Helvetica-Light" font-size="31.0" fill="#FEFFFF" transform="matrix(1.00, 0.00, -0.00, -1.00, 320.7, 604.0)">,</text><text xml:space="preserve" font-family="Helvetica-Light" font-size="31.0" fill="#FEFFFF" transform="matrix(1.00, 0.00, -0.00, -1.00, 329.3, 604.0)"> </text><text xml:space="preserve" font-family="Helvetica-Light" font-size="31.0" fill="#FEFFFF" transform="matrix(1.00, 0.00, -0.00, -1.00, 337.9, 604.0)">&lt;</text><text xml:space="preserve" font-family="Helvetica-Light" font-size="31.0" fill="#FEFFFF" transform="matrix(1.00, 0.00, -0.00, -1.00, 358.4, 604.0)">i</text><text xml:space="preserve" font-family="Helvetica-Light" font-size="31.0" fill="#FEFFFF" transform="matrix(1.00, 0.00, -0.00, -1.00, 365.2, 604.0)">m</text><text xml:space="preserve" font-family="Helvetica-Light" font-size="31.0" fill="#FEFFFF" transform="matrix(1.00, 0.00, -0.00, -1.00, 391.1, 604.0)">g</text><text xml:space="preserve" font-family="Helvetica-Light" font-size="31.0" fill="#FEFFFF" transform="matrix(1.00, 0.00, -0.00, -1.00, 410.0, 604.0)">&gt;</text><text xml:space="preserve" font-family="Helvetica-Light" font-size="31.0" fill="#FEFFFF" transform="matrix(1.00, 0.00, -0.00, -1.00, 430.5, 604.0)">,</text><text xml:space="preserve" font-family="Helvetica-Light" font-size="31.0" fill="#FEFFFF" transform="matrix(1.00, 0.00, -0.00, -1.00, 439.1, 604.0)"> </text><text xml:space="preserve" font-family="Helvetica-Light" font-size="31.0" fill="#FEFFFF" transform="matrix(1.00, 0.00, -0.00, -1.00, 447.7, 604.0)">&lt;</text><text xml:space="preserve" font-family="Helvetica-Light" font-size="31.0" fill="#FEFFFF" transform="matrix(1.00, 0.00, -0.00, -1.00, 468.2, 604.0)">a</text><text xml:space="preserve" font-family="Helvetica-Light" font-size="31.0" fill="#FEFFFF" transform="matrix(1.00, 0.00, -0.00, -1.00, 485.4, 604.0)">&gt;</text></g></svg>